<svg width="24" height="24" viewBox="0 0 24 24" fill="none" xmlns="http://www.w3.org/2000/svg">
  <!-- Test tube -->
  <path d="M10 3 L10 16 Q10 18 12 18 L14 18 Q16 18 16 16 L16 3 Z" stroke="#C5C5C5" stroke-width="1.5" fill="none" stroke-linecap="round" stroke-linejoin="round"/>
  
  <!-- Test tube content -->
  <path d="M10.5 12 L10.5 16 Q10.5 17.5 12 17.5 L14 17.5 Q15.5 17.5 15.5 16 L15.5 12 Z" fill="#4CAF50" opacity="0.7"/>
  
  <!-- Cap/top -->
  <rect x="9" y="2" width="8" height="1.5" rx="0.5" fill="#C5C5C5"/>
  
  <!-- AI sparkle 1 -->
  <circle cx="6" cy="8" r="1" fill="#FFD700"/>
  <line x1="6" y1="6.5" x2="6" y2="9.5" stroke="#FFD700" stroke-width="0.5"/>
  <line x1="4.5" y1="8" x2="7.5" y2="8" stroke="#FFD700" stroke-width="0.5"/>
  
  <!-- AI sparkle 2 -->
  <circle cx="19" cy="10" r="0.8" fill="#FFD700"/>
  <line x1="19" y1="8.7" x2="19" y2="11.3" stroke="#FFD700" stroke-width="0.5"/>
  <line x1="17.7" y1="10" x2="20.3" y2="10" stroke="#FFD700" stroke-width="0.5"/>
  
  <!-- Code brackets -->
  <path d="M5 19 L3 20.5 L5 22" stroke="#C5C5C5" stroke-width="1.2" fill="none" stroke-linecap="round"/>
  <path d="M21 19 L23 20.5 L21 22" stroke="#C5C5C5" stroke-width="1.2" fill="none" stroke-linecap="round"/>
</svg>
